<svg xmlns="http://www.w3.org/2000/svg" width="26.5" height="29" viewBox="0 0 26.5 29">
  <metadata><?xpacket begin="﻿" id="W5M0MpCehiHzreSzNTczkc9d"?>
<x:xmpmeta xmlns:x="adobe:ns:meta/" x:xmptk="Adobe XMP Core 5.6-c138 79.159824, 2016/09/14-01:09:01        ">
   <rdf:RDF xmlns:rdf="http://www.w3.org/1999/02/22-rdf-syntax-ns#">
      <rdf:Description rdf:about=""/>
   </rdf:RDF>
</x:xmpmeta>
                                                                                                    
                                                                                                    
                                                                                                    
                                                                                                    
                                                                                                    
                                                                                                    
                                                                                                    
                                                                                                    
                                                                                                    
                                                                                                    
                                                                                                    
                                                                                                    
                                                                                                    
                                                                                                    
                                                                                                    
                                                                                                    
                                                                                                    
                                                                                                    
                                                                                                    
                                                                                                    
                           
<?xpacket end="w"?></metadata>
<defs>
    <style>
      .cls-1 {
        fill: #79b260;
        fill-rule: evenodd;
      }
    </style>
  </defs>
  <path class="cls-1" d="M855.328,54.22q-0.455.987-1.1,2.614t-1.365,3.5q-0.719,1.875-1.418,3.807t-1.27,3.483q-0.57,1.554-1.288,3.523a7.586,7.586,0,0,1-.682,1.23,1.288,1.288,0,0,1-1.138.55h-13.1a1.418,1.418,0,0,1-1.193-.569,3.65,3.65,0,0,1-.625-1.211l-3.067-11.475a1.62,1.62,0,0,1,.132-1.287,1.907,1.907,0,0,1,1.684-.53h19.314l2.274-4.922a1.454,1.454,0,0,1,.946-0.873,1.66,1.66,0,0,1,1.134.1,1.717,1.717,0,0,1,.816.794A1.379,1.379,0,0,1,855.328,54.22Zm-17.04,24.049A2.724,2.724,0,0,1,835.561,81a2.676,2.676,0,0,1-1.97-.8,2.627,2.627,0,0,1-.795-1.93,2.7,2.7,0,0,1,.795-1.951,2.645,2.645,0,0,1,1.97-.814,2.593,2.593,0,0,1,1.928.814A2.7,2.7,0,0,1,838.288,78.269Zm9.5,0A2.715,2.715,0,0,1,845.066,81a2.674,2.674,0,0,1-1.97-.8,2.628,2.628,0,0,1-.8-1.93,2.7,2.7,0,0,1,.8-1.951,2.643,2.643,0,0,1,1.97-.814,2.605,2.605,0,0,1,1.932.814A2.7,2.7,0,0,1,847.792,78.269Z" transform="translate(-829 -52)"/>
</svg>
